<svg xmlns="http://www.w3.org/2000/svg" width="2940" height="960"><g transform="translate(560 0)"><defs><marker id="closed-circle-at-center" viewBox="0 0 10 10" refX="5" refY="5" markerUnits="userSpaceOnUse" markerWidth="8" markerHeight="8" orient="auto-start-reverse"><circle cx="5" cy="5" r="5" fill="context-fill" stroke="context-stroke"/></marker><marker id="closed-circle-at-border" viewBox="0 0 10 10" refX="10" refY="5" markerUnits="userSpaceOnUse" markerWidth="8" markerHeight="8" orient="auto-start-reverse"><circle cx="5" cy="5" r="5" fill="context-fill" stroke="context-stroke"/></marker><marker id="closed-arrow" viewBox="0 0 10 10" refX="10" refY="5" markerUnits="userSpaceOnUse" markerWidth="8" markerHeight="8" orient="auto-start-reverse"><path d="M 0 0 L 10 5 L 0 10 z" fill="context-fill" stroke="context-stroke"/></marker><marker id="open-arrow" viewBox="0 0 10 10" refX="10" refY="5" markerUnits="userSpaceOnUse" markerWidth="8" markerHeight="8" orient="auto-start-reverse"><path d="M 0,0 L 10,5 M 10,5 L 0,10" stroke="black"/></marker></defs><path marker-end="url(#closed-arrow)" d="M 430,200 L 430,260" style="stroke-width: 1; stroke: black;"/><path marker-end="url(#closed-arrow)" d="M 953,200 L 952,260" style="stroke-width: 1; stroke: black;"/><path marker-end="url(#closed-arrow)" d="M 460,292 L 600,300 M 600,300 L 600,160 M 600,160 L 860,150" style="stroke-width: 1; stroke: black;"/><path marker-end="url(#closed-arrow)" d="M 980,290 L 1040,290" style="stroke-width: 1; stroke: black;"/><path marker-end="url(#closed-arrow)" d="M 1593,200 L 1592,260" style="stroke-width: 1; stroke: black;"/><path marker-end="url(#closed-arrow)" d="M 1620,292 L 1680,295" style="stroke-width: 1; stroke: black;"/><path marker-end="url(#closed-arrow)" d="M 1134,240 L 1140,160 M 1140,160 L 1500,150" style="stroke-width: 1; stroke: black;"/><path marker-end="url(#closed-arrow)" d="M 1770,240 L 1780,160 M 1780,160 L 2040,150" style="stroke-width: 1; stroke: black;"/><path marker-end="url(#closed-arrow)" d="M 2220,150 L 2260,150" style="stroke-width: 1; stroke: black;"/><path marker-end="url(#closed-arrow)" d="M -100,152 L -80,150" style="stroke-width: 1; stroke: black;"/><path marker-end="url(#closed-arrow)" d="M 340,612 L -120,620 M -120,620 L -130,180" style="stroke-width: 1; stroke: black;"/><path marker-end="url(#closed-arrow)" d="M 431,320 L 430,560" style="stroke-width: 1; stroke: black;"/><path marker-end="url(#closed-arrow)" d="M 951,320 L 950,560" style="stroke-width: 1; stroke: black;"/><path marker-end="url(#closed-arrow)" d="M 860,611 L -120,620 M -120,620 L -130,180" style="stroke-width: 1; stroke: black;"/><path marker-end="url(#closed-arrow)" d="M 1591,320 L 1590,560" style="stroke-width: 1; stroke: black;"/><path marker-end="url(#closed-arrow)" d="M 1500,611 L -120,620 M -120,620 L -130,180" style="stroke-width: 1; stroke: black;"/><path marker-end="url(#closed-arrow)" d="M 10,200 L 10,240" style="stroke-width: 1; stroke: black;"/><path marker-end="url(#closed-arrow)" d="M 100,290 L 240,300 M 240,300 L 240,160 M 240,160 L 340,150" style="stroke-width: 1; stroke: black;"/><path marker-end="url(#closed-arrow)" d="M -420,150 L -380,150" style="stroke-width: 1; stroke: black;"/><path marker-end="url(#closed-arrow)" d="M -200,155 L -160,150" style="stroke-width: 1; stroke: black;"/><g data-kie-bpmn-node-id="_642F15CA-E5A5-4658-9738-D7E73B8EB295"><rect x="640.75" y="20.75" width="618.5" height="858.6" stroke-width="1.5" fill="transparent" stroke="rgba(0, 0, 0, 1)" stroke-linejoin="round" rx="3" ry="3" class="xyflow-react-kie-diagram--node-containerNode-visibleRect"/><line x1="680.75" y1="20.75" x2="680.75" y2="879.35" stroke="rgba(0, 0, 0, 1)" stroke-width="1.5"/><rect x="650" y="30" width="600" height="840.1" stroke-width="20" fill="transparent" stroke="transparent" stroke-linejoin="round" rx="0" ry="0" class="xyflow-react-kie-diagram--node-containerNode-interactionRect"/><svg x="0" y="calc(1.5em * 0)" style="overflow: visible;"><text transform="translate(658,38)" text-anchor="start" style="font-family: arial; font-size: 16px; line-height: 1.5em;"><tspan x="0" dy="0.71em">RO</tspan></text></svg></g><g data-kie-bpmn-node-id="_894A15C9-461D-4A80-A59A-A288CA766D9F"><rect x="1920.75" y="20.75" width="438.5" height="858.6" stroke-width="1.5" fill="transparent" stroke="rgba(0, 0, 0, 1)" stroke-linejoin="round" rx="3" ry="3" class="xyflow-react-kie-diagram--node-containerNode-visibleRect"/><line x1="1960.75" y1="20.75" x2="1960.75" y2="879.35" stroke="rgba(0, 0, 0, 1)" stroke-width="1.5"/><rect x="1930" y="30" width="420" height="840.1" stroke-width="20" fill="transparent" stroke="transparent" stroke-linejoin="round" rx="0" ry="0" class="xyflow-react-kie-diagram--node-containerNode-interactionRect"/><svg x="0" y="calc(1.5em * 0)" style="overflow: visible;"><text transform="translate(1938,38)" text-anchor="start" style="font-family: arial; font-size: 16px; line-height: 1.5em;"><tspan x="0" dy="0.71em">RMD</tspan></text></svg></g><g data-kie-bpmn-node-id="_4596C719-44BC-4A6E-B9C6-B6E047354CF3"><rect x="140.75" y="20.75" width="478.5" height="858.6" stroke-width="1.5" fill="transparent" stroke="rgba(0, 0, 0, 1)" stroke-linejoin="round" rx="3" ry="3" class="xyflow-react-kie-diagram--node-containerNode-visibleRect"/><line x1="180.75" y1="20.75" x2="180.75" y2="879.35" stroke="rgba(0, 0, 0, 1)" stroke-width="1.5"/><rect x="150" y="30" width="460" height="840.1" stroke-width="20" fill="transparent" stroke="transparent" stroke-linejoin="round" rx="0" ry="0" class="xyflow-react-kie-diagram--node-containerNode-interactionRect"/><svg x="0" y="calc(1.5em * 0)" style="overflow: visible;"><text transform="translate(158,38)" text-anchor="start" style="font-family: arial; font-size: 16px; line-height: 1.5em;"><tspan x="0" dy="0.71em">Divisional Head</tspan></text></svg></g><g data-kie-bpmn-node-id="_218BE1CB-1FDD-4AAD-9D0B-7F1AB9BA8E63"><rect x="-539.25" y="20.75" width="658.5" height="858.6" stroke-width="1.5" fill="transparent" stroke="rgba(0, 0, 0, 1)" stroke-linejoin="round" rx="3" ry="3" class="xyflow-react-kie-diagram--node-containerNode-visibleRect"/><line x1="-499.25" y1="20.75" x2="-499.25" y2="879.35" stroke="rgba(0, 0, 0, 1)" stroke-width="1.5"/><rect x="-530" y="30" width="640" height="840.1" stroke-width="20" fill="transparent" stroke="transparent" stroke-linejoin="round" rx="0" ry="0" class="xyflow-react-kie-diagram--node-containerNode-interactionRect"/><svg x="0" y="calc(1.5em * 0)" style="overflow: visible;"><text transform="translate(-522,38)" text-anchor="start" style="font-family: arial; font-size: 16px; line-height: 1.5em;"><tspan x="0" dy="0.71em">Maker</tspan></text></svg></g><g data-kie-bpmn-node-id="_C291EF57-55A5-41AE-87EB-44F8674D31F9"><rect x="1280.75" y="20.75" width="618.5" height="858.6" stroke-width="1.5" fill="transparent" stroke="rgba(0, 0, 0, 1)" stroke-linejoin="round" rx="3" ry="3" class="xyflow-react-kie-diagram--node-containerNode-visibleRect"/><line x1="1320.75" y1="20.75" x2="1320.75" y2="879.35" stroke="rgba(0, 0, 0, 1)" stroke-width="1.5"/><rect x="1290" y="30" width="600" height="840.1" stroke-width="20" fill="transparent" stroke="transparent" stroke-linejoin="round" rx="0" ry="0" class="xyflow-react-kie-diagram--node-containerNode-interactionRect"/><svg x="0" y="calc(1.5em * 0)" style="overflow: visible;"><text transform="translate(1298,38)" text-anchor="start" style="font-family: arial; font-size: 16px; line-height: 1.5em;"><tspan x="0" dy="0.71em">HOD</tspan></text></svg></g><g data-kie-bpmn-node-id="_F37DF12F-2C90-4492-BB4F-102047D35890"><circle cx="-450" cy="150.05" stroke-width="1.5" width="58.5" height="58.6" fill="#e8fae6" stroke="#4aa241" stroke-linejoin="round" r="29.25"/></g><g data-kie-bpmn-node-id="_DB6511C3-530F-4D9B-B789-1D8DC62AEE70"><rect x="-79.25" y="100.75" stroke-width="1.5" width="178.5" height="98.6" fill="rgba(255, 255, 255, 0.9)" stroke="rgba(0, 0, 0, 1)" stroke-linejoin="round" rx="3" ry="3"/><g transform="translate(-76.25, 103.75)"><svg version="1.0" xmlns="http://www.w3.org/2000/svg" width="25" height="25.650557620817843" viewBox="0 0 269 276" preserveAspectRatio="xMidYMid meet"><g transform="translate(0, 276) scale(0.1, -0.1)" stroke="black" stroke-width="25"><path d="M1310 2724 c-160 -26 -279 -82 -372 -176 -76 -77 -118 -153 -142&#10;        -255 -44 -196 6 -453 121 -614 18 -26 33 -51 33 -56 0 -24 -44 -45 -116 -58&#10;        -319 -57 -613 -271 -777 -566 l-37 -66 2 -414 3 -414 23 -3 c16 -3 22 -10 22&#10;        -28 l0 -24 1258 0 1257 0 18 43 c15 38 17 84 17 437 l0 394 -32 85 c-62 165&#10;        -212 341 -374 438 -82 49 -222 101 -324 118 -84 15 -130 34 -130 55 0 4 21 42&#10;        48 86 72 120 101 217 128 430 8 58 -22 197 -57 270 -55 112 -149 207 -250 252&#10;        -114 50 -247 78 -319 66z m416 -614 c75 -7 134 -16 141 -23 10 -10 10 -27 -1&#10;        -82 -7 -39 -17 -79 -21 -90 -26 -71 -72 -149 -120 -204 -62 -70 -62 -63 2&#10;        -132 l33 -35 -2 -175 -3 -174 -400 0 -400 0 -3 173 -2 173 40 46 c22 25 40 52&#10;        40 60 0 7 -17 32 -39 56 -43 47 -101 136 -119 182 -21 54 -44 177 -36 185 5 5&#10;        27 2 49 -6 60 -22 273 -11 335 18 75 36 274 46 506 28z m194 -600 c275 -54&#10;        533 -270 626 -527 27 -74 30 -103 12 -104 -10 0 -10 -2 0 -6 9 -4 12 -86 12&#10;        -364 l0 -359 -229 0 -230 0 -1 220 c0 121 -3 227 -6 235 -7 17 -30 20 -39 5&#10;        -3 -6 -6 -97 -5 -203 0 -106 -3 -207 -6 -225 l-7 -32 -736 2 c-580 2 -736 6&#10;        -737 16 -1 6 -2 109 -3 227 -1 186 -3 216 -17 222 -8 3 -19 2 -24 -3 -5 -5&#10;        -10 -110 -12 -234 l-3 -225 -223 -3 -222 -2 0 387 0 388 39 67 c105 180 259&#10;        327 446 427 79 43 219 89 280 93 48 3 50 2 56 -27 4 -16 7 -98 8 -181 1 -129&#10;        3 -153 17 -158 20 -8 842 -8 872 0 22 6 22 8 22 188 0 101 3 186 6 189 4 4 16&#10;        5 28 2 12 -2 46 -9 76 -15z"/></g></svg></g><svg x="0" y="calc(1.5em * 0)" style="overflow: visible;"><text transform="translate(10,150)" text-anchor="middle" style="font-family: arial; font-size: 16px; line-height: 1.5em;"><tspan x="0" dy="0.355em">Maker Submit RR</tspan></text></svg></g><g data-kie-bpmn-node-id="_DE0A504F-8E6A-4BD7-8000-5DFFF2191422"><rect x="340.75" y="100.75" stroke-width="1.5" width="178.5" height="98.6" fill="rgba(255, 255, 255, 0.9)" stroke="rgba(0, 0, 0, 1)" stroke-linejoin="round" rx="3" ry="3"/><g transform="translate(343.75, 103.75)"><svg version="1.0" xmlns="http://www.w3.org/2000/svg" width="25" height="25.650557620817843" viewBox="0 0 269 276" preserveAspectRatio="xMidYMid meet"><g transform="translate(0, 276) scale(0.1, -0.1)" stroke="black" stroke-width="25"><path d="M1310 2724 c-160 -26 -279 -82 -372 -176 -76 -77 -118 -153 -142&#10;        -255 -44 -196 6 -453 121 -614 18 -26 33 -51 33 -56 0 -24 -44 -45 -116 -58&#10;        -319 -57 -613 -271 -777 -566 l-37 -66 2 -414 3 -414 23 -3 c16 -3 22 -10 22&#10;        -28 l0 -24 1258 0 1257 0 18 43 c15 38 17 84 17 437 l0 394 -32 85 c-62 165&#10;        -212 341 -374 438 -82 49 -222 101 -324 118 -84 15 -130 34 -130 55 0 4 21 42&#10;        48 86 72 120 101 217 128 430 8 58 -22 197 -57 270 -55 112 -149 207 -250 252&#10;        -114 50 -247 78 -319 66z m416 -614 c75 -7 134 -16 141 -23 10 -10 10 -27 -1&#10;        -82 -7 -39 -17 -79 -21 -90 -26 -71 -72 -149 -120 -204 -62 -70 -62 -63 2&#10;        -132 l33 -35 -2 -175 -3 -174 -400 0 -400 0 -3 173 -2 173 40 46 c22 25 40 52&#10;        40 60 0 7 -17 32 -39 56 -43 47 -101 136 -119 182 -21 54 -44 177 -36 185 5 5&#10;        27 2 49 -6 60 -22 273 -11 335 18 75 36 274 46 506 28z m194 -600 c275 -54&#10;        533 -270 626 -527 27 -74 30 -103 12 -104 -10 0 -10 -2 0 -6 9 -4 12 -86 12&#10;        -364 l0 -359 -229 0 -230 0 -1 220 c0 121 -3 227 -6 235 -7 17 -30 20 -39 5&#10;        -3 -6 -6 -97 -5 -203 0 -106 -3 -207 -6 -225 l-7 -32 -736 2 c-580 2 -736 6&#10;        -737 16 -1 6 -2 109 -3 227 -1 186 -3 216 -17 222 -8 3 -19 2 -24 -3 -5 -5&#10;        -10 -110 -12 -234 l-3 -225 -223 -3 -222 -2 0 387 0 388 39 67 c105 180 259&#10;        327 446 427 79 43 219 89 280 93 48 3 50 2 56 -27 4 -16 7 -98 8 -181 1 -129&#10;        3 -153 17 -158 20 -8 842 -8 872 0 22 6 22 8 22 188 0 101 3 186 6 189 4 4 16&#10;        5 28 2 12 -2 46 -9 76 -15z"/></g></svg></g><svg x="0" y="calc(1.5em * 0)" style="overflow: visible;"><text transform="translate(430,150)" text-anchor="middle" style="font-family: arial; font-size: 16px; line-height: 1.5em;"><tspan x="0" dy="0.355em">Div Head Verify RR</tspan></text></svg></g><g data-kie-bpmn-node-id="_9477168A-A2C7-4290-A4E2-BAC5F30BB0F3"><rect x="408.75" y="268.75" transform="rotate(45,430,290.05)" stroke-width="1.5" width="41.78571428571429" height="41.85714285714286" fill="#fef5ea" stroke="#ec7b08" stroke-linejoin="round" rx="5" ry="5"/><line x1="420" y1="280.05" x2="440" y2="300.05" stroke="#ec7b08" stroke-width="4.5"/><line x1="440" y1="280.05" x2="420" y2="300.05" stroke="#ec7b08" stroke-width="4.5"/><svg x="0" y="calc(1.5em * 0)" style="overflow: visible;"><text transform="translate(430,324)" text-anchor="middle" style="font-family: arial; font-size: 16px; line-height: 1.5em;"><tspan x="0" dy="0.71em">Need</tspan><tspan x="0" dy="1.5em">Correction?</tspan></text></svg></g><g data-kie-bpmn-node-id="_18F8C933-387A-41A7-A7C0-BFB670B66BF1"><rect x="340.75" y="560.75" stroke-width="1.5" width="178.5" height="98.6" fill="rgba(255, 255, 255, 0.9)" stroke="rgba(0, 0, 0, 1)" stroke-linejoin="round" rx="3" ry="3"/><g transform="translate(343.75, 563.75)"><svg version="1.0" xmlns="http://www.w3.org/2000/svg" width="25" height="22.71825396825397" viewBox="0 0 252 229" preserveAspectRatio="xMidYMid meet"><g transform="translate(0, 229) scale(0.1, -0.1)" fill="black" stroke="none"><path d="M730 2196 c-241 -98 -407 -212 -496 -342 -103 -152 -117 -357 -37&#10;        -544 38 -90 92 -185 138 -242 74 -92 128 -182 166 -278 30 -77 34 -95 34 -185&#10;        0 -94 -2 -104 -34 -167 -18 -37 -56 -90 -83 -119 -55 -55 -168 -134 -245 -169&#10;        -83 -37 -98 -48 -107 -74 -6 -17 -6 -34 2 -51 l12 -25 837 0 838 0 100 50&#10;        c174 86 288 191 352 323 45 92 57 155 50 266 -10 169 -76 322 -214 494 -95&#10;        118 -162 267 -178 393 -9 68 18 173 60 239 71 112 230 222 430 299 139 54 155&#10;        65 155 112 0 67 45 64 -860 63 l-815 0 -105 -43z m1370 -93 c0 -5 -26 -24 -58&#10;        -43 -31 -19 -95 -73 -142 -120 -95 -95 -140 -172 -160 -278 -35 -175 40 -420&#10;        181 -593 101 -124 162 -236 193 -357 20 -77 20 -131 2 -197 -43 -156 -136&#10;        -253 -346 -362 l-55 -28 -647 -3 c-357 -1 -648 0 -648 4 0 4 34 40 75 81 127&#10;        127 175 238 175 404 0 174 -68 335 -228 541 -46 60 -116 192 -142 268 -6 19&#10;        -14 73 -17 120 -4 70 -2 95 15 143 54 152 208 277 471 383 l106 42 613 1 c336&#10;        1 612 -2 612 -6z"/><path d="M502 1794 c-28 -19 -30 -74 -4 -97 17 -15 72 -17 579 -17 530 0 561&#10;        1 576 18 23 25 21 68 -3 92 -20 20 -33 20 -573 20 -484 0 -555 -2 -575 -16z"/><path d="M497 1372 c-25 -27 -22 -78 5 -96 20 -14 91 -16 573 -16 612 0 595&#10;        -2 595 64 0 69 26 66 -597 66 -530 0 -561 -1 -576 -18z"/><path d="M767 892 c-10 -10 -17 -33 -17 -50 0 -64 -14 -62 600 -60 l553 3 19&#10;        26 c21 28 18 57 -8 84 -13 13 -90 15 -573 15 -528 0 -559 -1 -574 -18z"/><path d="M758 479 c-47 -27 -42 -95 8 -118 18 -8 183 -11 558 -11 524 0 534 0&#10;        560 21 32 25 35 70 6 99 -20 20 -33 20 -567 20 -351 0 -554 -4 -565 -11z"/></g></svg></g><svg x="0" y="calc(1.5em * 0)" style="overflow: visible;"><text transform="translate(430,610)" text-anchor="middle" style="font-family: arial; font-size: 16px; line-height: 1.5em;"><tspan x="0" dy="-0.395em">Mark Process for</tspan><tspan x="0" dy="1.5em">Review</tspan></text></svg></g><g data-kie-bpmn-node-id="_E82B11A3-F055-4091-AB9E-6869B67ACE6E"><rect x="860.75" y="100.75" stroke-width="1.5" width="178.5" height="98.6" fill="rgba(255, 255, 255, 0.9)" stroke="rgba(0, 0, 0, 1)" stroke-linejoin="round" rx="3" ry="3"/><g transform="translate(863.75, 103.75)"><svg version="1.0" xmlns="http://www.w3.org/2000/svg" width="25" height="25.650557620817843" viewBox="0 0 269 276" preserveAspectRatio="xMidYMid meet"><g transform="translate(0, 276) scale(0.1, -0.1)" stroke="black" stroke-width="25"><path d="M1310 2724 c-160 -26 -279 -82 -372 -176 -76 -77 -118 -153 -142&#10;        -255 -44 -196 6 -453 121 -614 18 -26 33 -51 33 -56 0 -24 -44 -45 -116 -58&#10;        -319 -57 -613 -271 -777 -566 l-37 -66 2 -414 3 -414 23 -3 c16 -3 22 -10 22&#10;        -28 l0 -24 1258 0 1257 0 18 43 c15 38 17 84 17 437 l0 394 -32 85 c-62 165&#10;        -212 341 -374 438 -82 49 -222 101 -324 118 -84 15 -130 34 -130 55 0 4 21 42&#10;        48 86 72 120 101 217 128 430 8 58 -22 197 -57 270 -55 112 -149 207 -250 252&#10;        -114 50 -247 78 -319 66z m416 -614 c75 -7 134 -16 141 -23 10 -10 10 -27 -1&#10;        -82 -7 -39 -17 -79 -21 -90 -26 -71 -72 -149 -120 -204 -62 -70 -62 -63 2&#10;        -132 l33 -35 -2 -175 -3 -174 -400 0 -400 0 -3 173 -2 173 40 46 c22 25 40 52&#10;        40 60 0 7 -17 32 -39 56 -43 47 -101 136 -119 182 -21 54 -44 177 -36 185 5 5&#10;        27 2 49 -6 60 -22 273 -11 335 18 75 36 274 46 506 28z m194 -600 c275 -54&#10;        533 -270 626 -527 27 -74 30 -103 12 -104 -10 0 -10 -2 0 -6 9 -4 12 -86 12&#10;        -364 l0 -359 -229 0 -230 0 -1 220 c0 121 -3 227 -6 235 -7 17 -30 20 -39 5&#10;        -3 -6 -6 -97 -5 -203 0 -106 -3 -207 -6 -225 l-7 -32 -736 2 c-580 2 -736 6&#10;        -737 16 -1 6 -2 109 -3 227 -1 186 -3 216 -17 222 -8 3 -19 2 -24 -3 -5 -5&#10;        -10 -110 -12 -234 l-3 -225 -223 -3 -222 -2 0 387 0 388 39 67 c105 180 259&#10;        327 446 427 79 43 219 89 280 93 48 3 50 2 56 -27 4 -16 7 -98 8 -181 1 -129&#10;        3 -153 17 -158 20 -8 842 -8 872 0 22 6 22 8 22 188 0 101 3 186 6 189 4 4 16&#10;        5 28 2 12 -2 46 -9 76 -15z"/></g></svg></g><svg x="0" y="calc(1.5em * 0)" style="overflow: visible;"><text transform="translate(950,150)" text-anchor="middle" style="font-family: arial; font-size: 16px; line-height: 1.5em;"><tspan x="0" dy="0.355em">JRO Verify RR</tspan></text></svg></g><g data-kie-bpmn-node-id="_F8071055-52F6-4F5D-BE9E-00C51CC97456"><rect x="928.75" y="268.75" transform="rotate(45,950,290.05)" stroke-width="1.5" width="41.78571428571429" height="41.85714285714286" fill="#fef5ea" stroke="#ec7b08" stroke-linejoin="round" rx="5" ry="5"/><line x1="940" y1="280.05" x2="960" y2="300.05" stroke="#ec7b08" stroke-width="4.5"/><line x1="960" y1="280.05" x2="940" y2="300.05" stroke="#ec7b08" stroke-width="4.5"/><svg x="0" y="calc(1.5em * 0)" style="overflow: visible;"><text transform="translate(950,324)" text-anchor="middle" style="font-family: arial; font-size: 16px; line-height: 1.5em;"><tspan x="0" dy="0.71em">Need</tspan><tspan x="0" dy="1.5em">Correction?</tspan></text></svg></g><g data-kie-bpmn-node-id="_A73C6F1E-9D94-4734-8B96-6C413A67B347"><rect x="860.75" y="560.75" stroke-width="1.5" width="178.5" height="98.6" fill="rgba(255, 255, 255, 0.9)" stroke="rgba(0, 0, 0, 1)" stroke-linejoin="round" rx="3" ry="3"/><g transform="translate(863.75, 563.75)"><svg version="1.0" xmlns="http://www.w3.org/2000/svg" width="25" height="22.71825396825397" viewBox="0 0 252 229" preserveAspectRatio="xMidYMid meet"><g transform="translate(0, 229) scale(0.1, -0.1)" fill="black" stroke="none"><path d="M730 2196 c-241 -98 -407 -212 -496 -342 -103 -152 -117 -357 -37&#10;        -544 38 -90 92 -185 138 -242 74 -92 128 -182 166 -278 30 -77 34 -95 34 -185&#10;        0 -94 -2 -104 -34 -167 -18 -37 -56 -90 -83 -119 -55 -55 -168 -134 -245 -169&#10;        -83 -37 -98 -48 -107 -74 -6 -17 -6 -34 2 -51 l12 -25 837 0 838 0 100 50&#10;        c174 86 288 191 352 323 45 92 57 155 50 266 -10 169 -76 322 -214 494 -95&#10;        118 -162 267 -178 393 -9 68 18 173 60 239 71 112 230 222 430 299 139 54 155&#10;        65 155 112 0 67 45 64 -860 63 l-815 0 -105 -43z m1370 -93 c0 -5 -26 -24 -58&#10;        -43 -31 -19 -95 -73 -142 -120 -95 -95 -140 -172 -160 -278 -35 -175 40 -420&#10;        181 -593 101 -124 162 -236 193 -357 20 -77 20 -131 2 -197 -43 -156 -136&#10;        -253 -346 -362 l-55 -28 -647 -3 c-357 -1 -648 0 -648 4 0 4 34 40 75 81 127&#10;        127 175 238 175 404 0 174 -68 335 -228 541 -46 60 -116 192 -142 268 -6 19&#10;        -14 73 -17 120 -4 70 -2 95 15 143 54 152 208 277 471 383 l106 42 613 1 c336&#10;        1 612 -2 612 -6z"/><path d="M502 1794 c-28 -19 -30 -74 -4 -97 17 -15 72 -17 579 -17 530 0 561&#10;        1 576 18 23 25 21 68 -3 92 -20 20 -33 20 -573 20 -484 0 -555 -2 -575 -16z"/><path d="M497 1372 c-25 -27 -22 -78 5 -96 20 -14 91 -16 573 -16 612 0 595&#10;        -2 595 64 0 69 26 66 -597 66 -530 0 -561 -1 -576 -18z"/><path d="M767 892 c-10 -10 -17 -33 -17 -50 0 -64 -14 -62 600 -60 l553 3 19&#10;        26 c21 28 18 57 -8 84 -13 13 -90 15 -573 15 -528 0 -559 -1 -574 -18z"/><path d="M758 479 c-47 -27 -42 -95 8 -118 18 -8 183 -11 558 -11 524 0 534 0&#10;        560 21 32 25 35 70 6 99 -20 20 -33 20 -567 20 -351 0 -554 -4 -565 -11z"/></g></svg></g><svg x="0" y="calc(1.5em * 0)" style="overflow: visible;"><text transform="translate(950,610)" text-anchor="middle" style="font-family: arial; font-size: 16px; line-height: 1.5em;"><tspan x="0" dy="-0.395em">Mark Process for</tspan><tspan x="0" dy="1.5em">Review</tspan></text></svg></g><g data-kie-bpmn-node-id="_1C18E257-48C8-4832-91D9-C1FCC57190C5"><rect x="1040.75" y="240.75" stroke-width="1.5" width="178.5" height="98.6" fill="rgba(255, 255, 255, 0.9)" stroke="rgba(0, 0, 0, 1)" stroke-linejoin="round" rx="3" ry="3"/><g transform="translate(1043.75, 243.75)"><svg version="1.0" xmlns="http://www.w3.org/2000/svg" width="25" height="25.650557620817843" viewBox="0 0 269 276" preserveAspectRatio="xMidYMid meet"><g transform="translate(0, 276) scale(0.1, -0.1)" stroke="black" stroke-width="25"><path d="M1310 2724 c-160 -26 -279 -82 -372 -176 -76 -77 -118 -153 -142&#10;        -255 -44 -196 6 -453 121 -614 18 -26 33 -51 33 -56 0 -24 -44 -45 -116 -58&#10;        -319 -57 -613 -271 -777 -566 l-37 -66 2 -414 3 -414 23 -3 c16 -3 22 -10 22&#10;        -28 l0 -24 1258 0 1257 0 18 43 c15 38 17 84 17 437 l0 394 -32 85 c-62 165&#10;        -212 341 -374 438 -82 49 -222 101 -324 118 -84 15 -130 34 -130 55 0 4 21 42&#10;        48 86 72 120 101 217 128 430 8 58 -22 197 -57 270 -55 112 -149 207 -250 252&#10;        -114 50 -247 78 -319 66z m416 -614 c75 -7 134 -16 141 -23 10 -10 10 -27 -1&#10;        -82 -7 -39 -17 -79 -21 -90 -26 -71 -72 -149 -120 -204 -62 -70 -62 -63 2&#10;        -132 l33 -35 -2 -175 -3 -174 -400 0 -400 0 -3 173 -2 173 40 46 c22 25 40 52&#10;        40 60 0 7 -17 32 -39 56 -43 47 -101 136 -119 182 -21 54 -44 177 -36 185 5 5&#10;        27 2 49 -6 60 -22 273 -11 335 18 75 36 274 46 506 28z m194 -600 c275 -54&#10;        533 -270 626 -527 27 -74 30 -103 12 -104 -10 0 -10 -2 0 -6 9 -4 12 -86 12&#10;        -364 l0 -359 -229 0 -230 0 -1 220 c0 121 -3 227 -6 235 -7 17 -30 20 -39 5&#10;        -3 -6 -6 -97 -5 -203 0 -106 -3 -207 -6 -225 l-7 -32 -736 2 c-580 2 -736 6&#10;        -737 16 -1 6 -2 109 -3 227 -1 186 -3 216 -17 222 -8 3 -19 2 -24 -3 -5 -5&#10;        -10 -110 -12 -234 l-3 -225 -223 -3 -222 -2 0 387 0 388 39 67 c105 180 259&#10;        327 446 427 79 43 219 89 280 93 48 3 50 2 56 -27 4 -16 7 -98 8 -181 1 -129&#10;        3 -153 17 -158 20 -8 842 -8 872 0 22 6 22 8 22 188 0 101 3 186 6 189 4 4 16&#10;        5 28 2 12 -2 46 -9 76 -15z"/></g></svg></g><svg x="0" y="calc(1.5em * 0)" style="overflow: visible;"><text transform="translate(1130,290)" text-anchor="middle" style="font-family: arial; font-size: 16px; line-height: 1.5em;"><tspan x="0" dy="0.355em">SRO Submit RR</tspan></text></svg></g><g data-kie-bpmn-node-id="_D4D21E2A-9D22-4A2E-80DB-7E70D1232116"><rect x="1500.75" y="100.75" stroke-width="1.5" width="178.5" height="98.6" fill="rgba(255, 255, 255, 0.9)" stroke="rgba(0, 0, 0, 1)" stroke-linejoin="round" rx="3" ry="3"/><g transform="translate(1503.75, 103.75)"><svg version="1.0" xmlns="http://www.w3.org/2000/svg" width="25" height="25.650557620817843" viewBox="0 0 269 276" preserveAspectRatio="xMidYMid meet"><g transform="translate(0, 276) scale(0.1, -0.1)" stroke="black" stroke-width="25"><path d="M1310 2724 c-160 -26 -279 -82 -372 -176 -76 -77 -118 -153 -142&#10;        -255 -44 -196 6 -453 121 -614 18 -26 33 -51 33 -56 0 -24 -44 -45 -116 -58&#10;        -319 -57 -613 -271 -777 -566 l-37 -66 2 -414 3 -414 23 -3 c16 -3 22 -10 22&#10;        -28 l0 -24 1258 0 1257 0 18 43 c15 38 17 84 17 437 l0 394 -32 85 c-62 165&#10;        -212 341 -374 438 -82 49 -222 101 -324 118 -84 15 -130 34 -130 55 0 4 21 42&#10;        48 86 72 120 101 217 128 430 8 58 -22 197 -57 270 -55 112 -149 207 -250 252&#10;        -114 50 -247 78 -319 66z m416 -614 c75 -7 134 -16 141 -23 10 -10 10 -27 -1&#10;        -82 -7 -39 -17 -79 -21 -90 -26 -71 -72 -149 -120 -204 -62 -70 -62 -63 2&#10;        -132 l33 -35 -2 -175 -3 -174 -400 0 -400 0 -3 173 -2 173 40 46 c22 25 40 52&#10;        40 60 0 7 -17 32 -39 56 -43 47 -101 136 -119 182 -21 54 -44 177 -36 185 5 5&#10;        27 2 49 -6 60 -22 273 -11 335 18 75 36 274 46 506 28z m194 -600 c275 -54&#10;        533 -270 626 -527 27 -74 30 -103 12 -104 -10 0 -10 -2 0 -6 9 -4 12 -86 12&#10;        -364 l0 -359 -229 0 -230 0 -1 220 c0 121 -3 227 -6 235 -7 17 -30 20 -39 5&#10;        -3 -6 -6 -97 -5 -203 0 -106 -3 -207 -6 -225 l-7 -32 -736 2 c-580 2 -736 6&#10;        -737 16 -1 6 -2 109 -3 227 -1 186 -3 216 -17 222 -8 3 -19 2 -24 -3 -5 -5&#10;        -10 -110 -12 -234 l-3 -225 -223 -3 -222 -2 0 387 0 388 39 67 c105 180 259&#10;        327 446 427 79 43 219 89 280 93 48 3 50 2 56 -27 4 -16 7 -98 8 -181 1 -129&#10;        3 -153 17 -158 20 -8 842 -8 872 0 22 6 22 8 22 188 0 101 3 186 6 189 4 4 16&#10;        5 28 2 12 -2 46 -9 76 -15z"/></g></svg></g><svg x="0" y="calc(1.5em * 0)" style="overflow: visible;"><text transform="translate(1590,150)" text-anchor="middle" style="font-family: arial; font-size: 16px; line-height: 1.5em;"><tspan x="0" dy="0.355em">HOD Verify RR</tspan></text></svg></g><g data-kie-bpmn-node-id="_B1CA7113-6053-4EB8-A714-F214C0D1E051"><rect x="1568.75" y="268.75" transform="rotate(45,1590,290.05)" stroke-width="1.5" width="41.78571428571429" height="41.85714285714286" fill="#fef5ea" stroke="#ec7b08" stroke-linejoin="round" rx="5" ry="5"/><line x1="1580" y1="280.05" x2="1600" y2="300.05" stroke="#ec7b08" stroke-width="4.5"/><line x1="1600" y1="280.05" x2="1580" y2="300.05" stroke="#ec7b08" stroke-width="4.5"/><svg x="0" y="calc(1.5em * 0)" style="overflow: visible;"><text transform="translate(1590,324)" text-anchor="middle" style="font-family: arial; font-size: 16px; line-height: 1.5em;"><tspan x="0" dy="0.71em">Need</tspan><tspan x="0" dy="1.5em">Correction?</tspan></text></svg></g><g data-kie-bpmn-node-id="_F222CB4E-A07A-409D-9F65-AC1790C5293F"><rect x="1500.75" y="560.75" stroke-width="1.5" width="178.5" height="98.6" fill="rgba(255, 255, 255, 0.9)" stroke="rgba(0, 0, 0, 1)" stroke-linejoin="round" rx="3" ry="3"/><g transform="translate(1503.75, 563.75)"><svg version="1.0" xmlns="http://www.w3.org/2000/svg" width="25" height="22.71825396825397" viewBox="0 0 252 229" preserveAspectRatio="xMidYMid meet"><g transform="translate(0, 229) scale(0.1, -0.1)" fill="black" stroke="none"><path d="M730 2196 c-241 -98 -407 -212 -496 -342 -103 -152 -117 -357 -37&#10;        -544 38 -90 92 -185 138 -242 74 -92 128 -182 166 -278 30 -77 34 -95 34 -185&#10;        0 -94 -2 -104 -34 -167 -18 -37 -56 -90 -83 -119 -55 -55 -168 -134 -245 -169&#10;        -83 -37 -98 -48 -107 -74 -6 -17 -6 -34 2 -51 l12 -25 837 0 838 0 100 50&#10;        c174 86 288 191 352 323 45 92 57 155 50 266 -10 169 -76 322 -214 494 -95&#10;        118 -162 267 -178 393 -9 68 18 173 60 239 71 112 230 222 430 299 139 54 155&#10;        65 155 112 0 67 45 64 -860 63 l-815 0 -105 -43z m1370 -93 c0 -5 -26 -24 -58&#10;        -43 -31 -19 -95 -73 -142 -120 -95 -95 -140 -172 -160 -278 -35 -175 40 -420&#10;        181 -593 101 -124 162 -236 193 -357 20 -77 20 -131 2 -197 -43 -156 -136&#10;        -253 -346 -362 l-55 -28 -647 -3 c-357 -1 -648 0 -648 4 0 4 34 40 75 81 127&#10;        127 175 238 175 404 0 174 -68 335 -228 541 -46 60 -116 192 -142 268 -6 19&#10;        -14 73 -17 120 -4 70 -2 95 15 143 54 152 208 277 471 383 l106 42 613 1 c336&#10;        1 612 -2 612 -6z"/><path d="M502 1794 c-28 -19 -30 -74 -4 -97 17 -15 72 -17 579 -17 530 0 561&#10;        1 576 18 23 25 21 68 -3 92 -20 20 -33 20 -573 20 -484 0 -555 -2 -575 -16z"/><path d="M497 1372 c-25 -27 -22 -78 5 -96 20 -14 91 -16 573 -16 612 0 595&#10;        -2 595 64 0 69 26 66 -597 66 -530 0 -561 -1 -576 -18z"/><path d="M767 892 c-10 -10 -17 -33 -17 -50 0 -64 -14 -62 600 -60 l553 3 19&#10;        26 c21 28 18 57 -8 84 -13 13 -90 15 -573 15 -528 0 -559 -1 -574 -18z"/><path d="M758 479 c-47 -27 -42 -95 8 -118 18 -8 183 -11 558 -11 524 0 534 0&#10;        560 21 32 25 35 70 6 99 -20 20 -33 20 -567 20 -351 0 -554 -4 -565 -11z"/></g></svg></g><svg x="0" y="calc(1.5em * 0)" style="overflow: visible;"><text transform="translate(1590,610)" text-anchor="middle" style="font-family: arial; font-size: 16px; line-height: 1.5em;"><tspan x="0" dy="-0.395em">Mark Process for</tspan><tspan x="0" dy="1.5em">Review</tspan></text></svg></g><g data-kie-bpmn-node-id="_86C40E52-AF78-4A55-BD9A-1FA862FAAEA6"><rect x="1680.75" y="240.75" stroke-width="1.5" width="178.5" height="98.6" fill="rgba(255, 255, 255, 0.9)" stroke="rgba(0, 0, 0, 1)" stroke-linejoin="round" rx="3" ry="3"/><g transform="translate(1683.75, 243.75)"><svg version="1.0" xmlns="http://www.w3.org/2000/svg" width="25" height="25.650557620817843" viewBox="0 0 269 276" preserveAspectRatio="xMidYMid meet"><g transform="translate(0, 276) scale(0.1, -0.1)" stroke="black" stroke-width="25"><path d="M1310 2724 c-160 -26 -279 -82 -372 -176 -76 -77 -118 -153 -142&#10;        -255 -44 -196 6 -453 121 -614 18 -26 33 -51 33 -56 0 -24 -44 -45 -116 -58&#10;        -319 -57 -613 -271 -777 -566 l-37 -66 2 -414 3 -414 23 -3 c16 -3 22 -10 22&#10;        -28 l0 -24 1258 0 1257 0 18 43 c15 38 17 84 17 437 l0 394 -32 85 c-62 165&#10;        -212 341 -374 438 -82 49 -222 101 -324 118 -84 15 -130 34 -130 55 0 4 21 42&#10;        48 86 72 120 101 217 128 430 8 58 -22 197 -57 270 -55 112 -149 207 -250 252&#10;        -114 50 -247 78 -319 66z m416 -614 c75 -7 134 -16 141 -23 10 -10 10 -27 -1&#10;        -82 -7 -39 -17 -79 -21 -90 -26 -71 -72 -149 -120 -204 -62 -70 -62 -63 2&#10;        -132 l33 -35 -2 -175 -3 -174 -400 0 -400 0 -3 173 -2 173 40 46 c22 25 40 52&#10;        40 60 0 7 -17 32 -39 56 -43 47 -101 136 -119 182 -21 54 -44 177 -36 185 5 5&#10;        27 2 49 -6 60 -22 273 -11 335 18 75 36 274 46 506 28z m194 -600 c275 -54&#10;        533 -270 626 -527 27 -74 30 -103 12 -104 -10 0 -10 -2 0 -6 9 -4 12 -86 12&#10;        -364 l0 -359 -229 0 -230 0 -1 220 c0 121 -3 227 -6 235 -7 17 -30 20 -39 5&#10;        -3 -6 -6 -97 -5 -203 0 -106 -3 -207 -6 -225 l-7 -32 -736 2 c-580 2 -736 6&#10;        -737 16 -1 6 -2 109 -3 227 -1 186 -3 216 -17 222 -8 3 -19 2 -24 -3 -5 -5&#10;        -10 -110 -12 -234 l-3 -225 -223 -3 -222 -2 0 387 0 388 39 67 c105 180 259&#10;        327 446 427 79 43 219 89 280 93 48 3 50 2 56 -27 4 -16 7 -98 8 -181 1 -129&#10;        3 -153 17 -158 20 -8 842 -8 872 0 22 6 22 8 22 188 0 101 3 186 6 189 4 4 16&#10;        5 28 2 12 -2 46 -9 76 -15z"/></g></svg></g><svg x="0" y="calc(1.5em * 0)" style="overflow: visible;"><text transform="translate(1770,290)" text-anchor="middle" style="font-family: arial; font-size: 16px; line-height: 1.5em;"><tspan x="0" dy="0.355em">HOD Approve</tspan></text></svg></g><g data-kie-bpmn-node-id="_3F8D7AD6-3245-49F1-B287-8CF8A18AE0B7"><rect x="2040.75" y="100.75" stroke-width="1.5" width="178.5" height="98.6" fill="rgba(255, 255, 255, 0.9)" stroke="rgba(0, 0, 0, 1)" stroke-linejoin="round" rx="3" ry="3"/><g transform="translate(2043.75, 103.75)"><svg version="1.0" xmlns="http://www.w3.org/2000/svg" width="25" height="25.650557620817843" viewBox="0 0 269 276" preserveAspectRatio="xMidYMid meet"><g transform="translate(0, 276) scale(0.1, -0.1)" stroke="black" stroke-width="25"><path d="M1310 2724 c-160 -26 -279 -82 -372 -176 -76 -77 -118 -153 -142&#10;        -255 -44 -196 6 -453 121 -614 18 -26 33 -51 33 -56 0 -24 -44 -45 -116 -58&#10;        -319 -57 -613 -271 -777 -566 l-37 -66 2 -414 3 -414 23 -3 c16 -3 22 -10 22&#10;        -28 l0 -24 1258 0 1257 0 18 43 c15 38 17 84 17 437 l0 394 -32 85 c-62 165&#10;        -212 341 -374 438 -82 49 -222 101 -324 118 -84 15 -130 34 -130 55 0 4 21 42&#10;        48 86 72 120 101 217 128 430 8 58 -22 197 -57 270 -55 112 -149 207 -250 252&#10;        -114 50 -247 78 -319 66z m416 -614 c75 -7 134 -16 141 -23 10 -10 10 -27 -1&#10;        -82 -7 -39 -17 -79 -21 -90 -26 -71 -72 -149 -120 -204 -62 -70 -62 -63 2&#10;        -132 l33 -35 -2 -175 -3 -174 -400 0 -400 0 -3 173 -2 173 40 46 c22 25 40 52&#10;        40 60 0 7 -17 32 -39 56 -43 47 -101 136 -119 182 -21 54 -44 177 -36 185 5 5&#10;        27 2 49 -6 60 -22 273 -11 335 18 75 36 274 46 506 28z m194 -600 c275 -54&#10;        533 -270 626 -527 27 -74 30 -103 12 -104 -10 0 -10 -2 0 -6 9 -4 12 -86 12&#10;        -364 l0 -359 -229 0 -230 0 -1 220 c0 121 -3 227 -6 235 -7 17 -30 20 -39 5&#10;        -3 -6 -6 -97 -5 -203 0 -106 -3 -207 -6 -225 l-7 -32 -736 2 c-580 2 -736 6&#10;        -737 16 -1 6 -2 109 -3 227 -1 186 -3 216 -17 222 -8 3 -19 2 -24 -3 -5 -5&#10;        -10 -110 -12 -234 l-3 -225 -223 -3 -222 -2 0 387 0 388 39 67 c105 180 259&#10;        327 446 427 79 43 219 89 280 93 48 3 50 2 56 -27 4 -16 7 -98 8 -181 1 -129&#10;        3 -153 17 -158 20 -8 842 -8 872 0 22 6 22 8 22 188 0 101 3 186 6 189 4 4 16&#10;        5 28 2 12 -2 46 -9 76 -15z"/></g></svg></g><svg x="0" y="calc(1.5em * 0)" style="overflow: visible;"><text transform="translate(2130,150)" text-anchor="middle" style="font-family: arial; font-size: 16px; line-height: 1.5em;"><tspan x="0" dy="0.355em">RMD Verify RR</tspan></text></svg></g><g data-kie-bpmn-node-id="_B11A0D64-CFF4-4698-A0E7-B49B918B525C"><circle cx="2290" cy="150.05" stroke-width="6" width="54" height="54.1" fill="#fce7e7" stroke="#a30000" stroke-linejoin="round" r="27"/></g><g data-kie-bpmn-node-id="_83ECC640-A7A7-4CE0-914C-D9FBA3CD0928"><rect x="-151.25" y="128.75" transform="rotate(45,-130,150.05)" stroke-width="1.5" width="41.78571428571429" height="41.85714285714286" fill="#fef5ea" stroke="#ec7b08" stroke-linejoin="round" rx="5" ry="5"/><line x1="-140" y1="140.05" x2="-120" y2="160.05" stroke="#ec7b08" stroke-width="4.5"/><line x1="-120" y1="140.05" x2="-140" y2="160.05" stroke="#ec7b08" stroke-width="4.5"/></g><g data-kie-bpmn-node-id="_B0D002C4-2DFE-4F34-B75D-D684C307014D"><rect x="-79.25" y="240.75" stroke-width="1.5" width="178.5" height="98.6" fill="rgba(255, 255, 255, 0.9)" stroke="rgba(0, 0, 0, 1)" stroke-linejoin="round" rx="3" ry="3"/><g transform="translate(-76.25, 243.75)"><svg version="1.0" xmlns="http://www.w3.org/2000/svg" width="25" height="22.71825396825397" viewBox="0 0 252 229" preserveAspectRatio="xMidYMid meet"><g transform="translate(0, 229) scale(0.1, -0.1)" fill="black" stroke="none"><path d="M730 2196 c-241 -98 -407 -212 -496 -342 -103 -152 -117 -357 -37&#10;        -544 38 -90 92 -185 138 -242 74 -92 128 -182 166 -278 30 -77 34 -95 34 -185&#10;        0 -94 -2 -104 -34 -167 -18 -37 -56 -90 -83 -119 -55 -55 -168 -134 -245 -169&#10;        -83 -37 -98 -48 -107 -74 -6 -17 -6 -34 2 -51 l12 -25 837 0 838 0 100 50&#10;        c174 86 288 191 352 323 45 92 57 155 50 266 -10 169 -76 322 -214 494 -95&#10;        118 -162 267 -178 393 -9 68 18 173 60 239 71 112 230 222 430 299 139 54 155&#10;        65 155 112 0 67 45 64 -860 63 l-815 0 -105 -43z m1370 -93 c0 -5 -26 -24 -58&#10;        -43 -31 -19 -95 -73 -142 -120 -95 -95 -140 -172 -160 -278 -35 -175 40 -420&#10;        181 -593 101 -124 162 -236 193 -357 20 -77 20 -131 2 -197 -43 -156 -136&#10;        -253 -346 -362 l-55 -28 -647 -3 c-357 -1 -648 0 -648 4 0 4 34 40 75 81 127&#10;        127 175 238 175 404 0 174 -68 335 -228 541 -46 60 -116 192 -142 268 -6 19&#10;        -14 73 -17 120 -4 70 -2 95 15 143 54 152 208 277 471 383 l106 42 613 1 c336&#10;        1 612 -2 612 -6z"/><path d="M502 1794 c-28 -19 -30 -74 -4 -97 17 -15 72 -17 579 -17 530 0 561&#10;        1 576 18 23 25 21 68 -3 92 -20 20 -33 20 -573 20 -484 0 -555 -2 -575 -16z"/><path d="M497 1372 c-25 -27 -22 -78 5 -96 20 -14 91 -16 573 -16 612 0 595&#10;        -2 595 64 0 69 26 66 -597 66 -530 0 -561 -1 -576 -18z"/><path d="M767 892 c-10 -10 -17 -33 -17 -50 0 -64 -14 -62 600 -60 l553 3 19&#10;        26 c21 28 18 57 -8 84 -13 13 -90 15 -573 15 -528 0 -559 -1 -574 -18z"/><path d="M758 479 c-47 -27 -42 -95 8 -118 18 -8 183 -11 558 -11 524 0 534 0&#10;        560 21 32 25 35 70 6 99 -20 20 -33 20 -567 20 -351 0 -554 -4 -565 -11z"/></g></svg></g><svg x="0" y="calc(1.5em * 0)" style="overflow: visible;"><text transform="translate(10,290)" text-anchor="middle" style="font-family: arial; font-size: 16px; line-height: 1.5em;"><tspan x="0" dy="0.355em">Assign Approvers</tspan></text></svg></g><g data-kie-bpmn-node-id="_0A87A8D7-2339-4201-8BE6-79E8ADF30572"><rect x="-379.25" y="100.75" stroke-width="1.5" width="178.5" height="98.6" fill="rgba(255, 255, 255, 0.9)" stroke="rgba(0, 0, 0, 1)" stroke-linejoin="round" rx="3" ry="3"/><g transform="translate(-376.25, 103.75)"><svg version="1.0" xmlns="http://www.w3.org/2000/svg" width="25" height="22.71825396825397" viewBox="0 0 252 229" preserveAspectRatio="xMidYMid meet"><g transform="translate(0, 229) scale(0.1, -0.1)" fill="black" stroke="none"><path d="M730 2196 c-241 -98 -407 -212 -496 -342 -103 -152 -117 -357 -37&#10;        -544 38 -90 92 -185 138 -242 74 -92 128 -182 166 -278 30 -77 34 -95 34 -185&#10;        0 -94 -2 -104 -34 -167 -18 -37 -56 -90 -83 -119 -55 -55 -168 -134 -245 -169&#10;        -83 -37 -98 -48 -107 -74 -6 -17 -6 -34 2 -51 l12 -25 837 0 838 0 100 50&#10;        c174 86 288 191 352 323 45 92 57 155 50 266 -10 169 -76 322 -214 494 -95&#10;        118 -162 267 -178 393 -9 68 18 173 60 239 71 112 230 222 430 299 139 54 155&#10;        65 155 112 0 67 45 64 -860 63 l-815 0 -105 -43z m1370 -93 c0 -5 -26 -24 -58&#10;        -43 -31 -19 -95 -73 -142 -120 -95 -95 -140 -172 -160 -278 -35 -175 40 -420&#10;        181 -593 101 -124 162 -236 193 -357 20 -77 20 -131 2 -197 -43 -156 -136&#10;        -253 -346 -362 l-55 -28 -647 -3 c-357 -1 -648 0 -648 4 0 4 34 40 75 81 127&#10;        127 175 238 175 404 0 174 -68 335 -228 541 -46 60 -116 192 -142 268 -6 19&#10;        -14 73 -17 120 -4 70 -2 95 15 143 54 152 208 277 471 383 l106 42 613 1 c336&#10;        1 612 -2 612 -6z"/><path d="M502 1794 c-28 -19 -30 -74 -4 -97 17 -15 72 -17 579 -17 530 0 561&#10;        1 576 18 23 25 21 68 -3 92 -20 20 -33 20 -573 20 -484 0 -555 -2 -575 -16z"/><path d="M497 1372 c-25 -27 -22 -78 5 -96 20 -14 91 -16 573 -16 612 0 595&#10;        -2 595 64 0 69 26 66 -597 66 -530 0 -561 -1 -576 -18z"/><path d="M767 892 c-10 -10 -17 -33 -17 -50 0 -64 -14 -62 600 -60 l553 3 19&#10;        26 c21 28 18 57 -8 84 -13 13 -90 15 -573 15 -528 0 -559 -1 -574 -18z"/><path d="M758 479 c-47 -27 -42 -95 8 -118 18 -8 183 -11 558 -11 524 0 534 0&#10;        560 21 32 25 35 70 6 99 -20 20 -33 20 -567 20 -351 0 -554 -4 -565 -11z"/></g></svg></g><svg x="0" y="calc(1.5em * 0)" style="overflow: visible;"><text transform="translate(-290,150)" text-anchor="middle" style="font-family: arial; font-size: 16px; line-height: 1.5em;"><tspan x="0" dy="0.355em">Initialise</tspan></text></svg></g></g></svg>